<svg id="Layer_1" data-name="Layer 1" xmlns="http://www.w3.org/2000/svg" viewBox="0 0 150 144"><title>ACCOMMODATION_ICON</title><path d="M138.7827,10.8148A5.8649,5.8649,0,0,0,132.8267,5.06H18.1647a5.8649,5.8649,0,0,0-5.9561,5.7552v31.37h5.0938V25.5116a5.8649,5.8649,0,0,1,5.9561-5.7552H70.9072a6.0147,6.0147,0,0,1,4.765,2.3168,6.0142,6.0142,0,0,1,4.7648-2.3168h47.6489a5.8649,5.8649,0,0,1,5.9561,5.7552V42.1845h4.7407Z" style="fill:#fff"/><path d="M4.5585,109.05v29.0591a1.1758,1.1758,0,0,0,1.2,1.151H16.8873a1.1758,1.1758,0,0,0,1.2-1.151v-8.8223h115.139v8.8223a1.1759,1.1759,0,0,0,1.2,1.151h10.807a1.1756,1.1756,0,0,0,1.1995-1.151V128.136l.01-19.0858S4.5585,108.58,4.5585,109.05Z" style="fill:#fff"/><path d="M8.668,106.25H142.625a.9624.9624,0,0,0,.2449-.0494h.6941l.005-.6726a.6924.6924,0,0,0,.004-.5362l.0085-1.1622a5.7351,5.7351,0,0,0-.067-.8306,1.1207,1.1207,0,0,0,.0082-.6853L136.6392,46.16c0-.0151.0087-.0278.0087-.0432a1.0868,1.0868,0,0,0-.0356-.1768l-.0231-.188c-.0051-.0153-.0173-.0253-.0229-.04a1.12,1.12,0,0,0-.1143-.2,1.1582,1.1582,0,0,0-.1224-.1818.8912.8912,0,0,0-.53-.3035,1.1208,1.1208,0,0,0-.261-.0527c-.0146-.0005-.0269-.0084-.0417-.0084h-3.43V27.7a5.7617,5.7617,0,0,0-5.7551-5.7552H80.27a5.7438,5.7438,0,0,0-4.604,2.3168A5.7443,5.7443,0,0,0,71.062,21.945H25.0207A5.7617,5.7617,0,0,0,19.2655,27.7V44.9657H15.4946c-.0143,0-.0261.0076-.04.0081a1.1212,1.1212,0,0,0-.2661.0537,1.15,1.15,0,0,0-.17.0474,3.415,3.415,0,0,0-.3573.2564,1.1552,1.1552,0,0,0-.1156.1716,1.11,1.11,0,0,0-.121.2116c-.0052.0139-.0166.0231-.0213.0373l-.0209.1722a1.0907,1.0907,0,0,0-.0389.1927c0,.0169.0089.031.01.0477L7.5246,102.3137a1.12,1.12,0,0,0,.0076.6819,5.7464,5.7464,0,0,0-.0675.834l-.0175,2.371h.9759A.9629.9629,0,0,0,8.668,106.25ZM80.27,24.2471h46.0415A3.4574,3.4574,0,0,1,129.7649,27.7V46.1168a3.4573,3.4573,0,0,1-3.4531,3.4531H80.27a3.4572,3.4572,0,0,1-3.453-3.4531V27.7A3.4573,3.4573,0,0,1,80.27,24.2471ZM21.5676,27.7a3.4574,3.4574,0,0,1,3.4531-3.4531H71.062A3.4574,3.4574,0,0,1,74.5151,27.7V46.1168A3.4573,3.4573,0,0,1,71.062,49.57H25.0207a3.4573,3.4573,0,0,1-3.4531-3.4531ZM16.4911,47.2678h2.89a5.7649,5.7649,0,0,0,5.6392,4.6041H71.062a5.7444,5.7444,0,0,0,4.6042-2.3167,5.744,5.744,0,0,0,4.604,2.3167h46.0415a5.7648,5.7648,0,0,0,5.6392-4.6041h2.5513l6.3333,51.6654a5.7115,5.7115,0,0,0-3.0092-.8588H13.22a5.7122,5.7122,0,0,0-3.0123.8606ZM13.22,100.3765H137.8263a3.4573,3.4573,0,0,1,3.453,3.4531l-.0031.42H9.7637l.0031-.42A3.4573,3.4573,0,0,1,13.22,100.3765Z" style="fill:#fff"/></svg>