<svg id="Layer_1" data-name="Layer 1" xmlns="http://www.w3.org/2000/svg" viewBox="0 0 159 149"><title>Touchscreen SPA Symbols-ACTIVITIES</title><path d="M57.2576,146.003c-1.9689,0-8.3245-.8029-33.1854-6.4391l1.5336-6.7571c13.46,3.0515,28.6408,6.1955,31.2751,6.29,3.64-.7488,30.4361-5.6722,37.033-6.8834l5.5527-5.92,8.4892-3.153,10.4762,2.5215,18.8977-6.0556,2.1155,6.5992-20.7471,6.6465-10.3093-2.4809-4.9843,1.8494L97.41,138.6189l-1.1232.2052c-10.007,1.8336-36.3677,6.6849-38.1585,7.0909A3.3648,3.3648,0,0,1,57.2576,146.003Zm-.6518-6.8473-.009.0023Z" style="fill:#fff"/><path d="M47.74,138.6911a6.9353,6.9353,0,0,1-6.5766-9.1094L51.7347,107.12l-1.71-39.489a6.9295,6.9295,0,0,1,11.658-5.1828L90.2355,89.1228a6.9193,6.9193,0,0,1,2.0975,3.886l5.5956,32.4772a6.9277,6.9277,0,1,1-13.654,2.3546l-1.3189-26.7846L64.1658,83.73l.318,18.2707a6.9217,6.9217,0,0,1-.3518,2.2982l-9.8153,29.64A6.9305,6.9305,0,0,1,47.74,138.6911Z" style="fill:#fff"/><path d="M87.078,61.0886A6.93,6.93,0,0,1,80.4134,56.05l-6.43-22.6709a6.93,6.93,0,0,1,13.3337-3.78l4.1,19.5366,18.267-7.4895c3.3853-1.7761,7.6832-7.6717,9.4582-4.283a6.9262,6.9262,0,0,1-2.9229,9.3519L90.2919,60.297A6.8979,6.8979,0,0,1,87.078,61.0886Z" style="fill:#fff"/><path d="M113.9461,125.4093a1.1551,1.1551,0,0,1-1.1547-1.1457l-.67-90.7974a1.1541,1.1541,0,0,1,1.1457-1.1638,1.0894,1.0894,0,0,1,1.1638,1.1457l.67,90.7974a1.1541,1.1541,0,0,1-1.1457,1.1638Z" style="fill:#fff"/><circle cx="91.4286" cy="13.0134" r="11.9324" style="fill:#fff"/><path d="M51.0756,63.8447a6.9277,6.9277,0,1,0,11.7549,7.3344l9.8761-12.3214-18.4855-.055Z" style="fill:#fff"/><path d="M83.934,24.2631a6.93,6.93,0,0,0-9.5447,2.2114L56.6625,54.8913l17.5333,1.5794L86.1443,33.8089A6.93,6.93,0,0,0,83.934,24.2631Z" style="fill:#fff"/><path d="M24.769,44.2627a13.8355,13.8355,0,0,0,4.6415,19.5338l1.0967.66a15.2871,15.2871,0,0,0,20.4482-4.4339L52.48,57.71,32.7968,32.09Z" style="fill:#fff"/><path d="M70.6651,29.629a13.8354,13.8354,0,0,0-4.6414-19.5338l-1.0968-.66c-6.7134-4.04-26.2842,14.4724-30.7638,20.6427L54.7765,54.1483Z" style="fill:#fff"/><path d="M40.3311,129.0636s14.96,2.3955,15.4426,3.4247c1.6806,3.5832,9.64,2.0128,10.2105,2.9807a4.5861,4.5861,0,0,1,.5708,2.7587l-10.5525,1.6-16.8447-3.6612Z" style="fill:#fff"/><path d="M83.4,127.72s14.3748-4.7857,15.2783-4.0959c3.1457,2.4017,9.4794-2.6677,10.4328-2.0728a4.5861,4.5861,0,0,1,1.7806,2.1831l-8.62,6.2936-16.6311,4.5337Z" style="fill:#fff"/></svg>