<svg id="Layer_1" data-name="Layer 1" xmlns="http://www.w3.org/2000/svg" viewBox="0 0 254 149"><title>DESTINATIONS_ICON</title><path d="M241.1784,32.8763,150.8,17.74A20.0439,20.0439,0,0,0,131.3556,2.4209H21.7051A20.048,20.048,0,0,0,1.6788,22.4473V97.3229a20.048,20.048,0,0,0,20.0264,20.0264h65.99l1.5788,16.3785a15.0926,15.0926,0,0,0,5.4194,10.4064,15.2484,15.2484,0,0,0,7.2185,3.39,17.6932,17.6932,0,0,0,4.015.2047l72.4973-7.0123,43.4733,7.281a15.4038,15.4038,0,0,0,17.6845-12.6106L253.789,50.5608A15.4037,15.4037,0,0,0,241.1784,32.8763ZM7.399,97.3229V22.4473A14.3235,14.3235,0,0,1,21.7051,8.1412H131.3556a14.3235,14.3235,0,0,1,14.3061,14.3061V97.3229a14.3235,14.3235,0,0,1-14.3061,14.3061H115.4064V89.103h18.82a1.7315,1.7315,0,0,0,1.2731-.49,3.1459,3.1459,0,0,0,.4961-1.2363L115.4064,65.9381V63.9249a1.7526,1.7526,0,0,0-3.5052,0v2.0132L91.1846,87.3532a3.1508,3.1508,0,0,0,.4876,1.26,1.7094,1.7094,0,0,0,1.2633.49h18.9668v22.526H37.2565a.81.81,0,0,0,.6872-.7464c.0152-.4042,1.5662-38.2751,11.7265-50.1692.8228,2.5611,2.8127,8.6426,7.215,21.6584a1.6748,1.6748,0,0,0,1.29,1.1142,1.6473,1.6473,0,0,0,.3012.0293A1.6882,1.6882,0,0,0,59.7773,82.9c.2772-.3412,6.8052-8.4258,5.2938-17.5874-.0865-.5239-.2159-1.0339-.3507-1.542,2.2254,2.29,4.7479,5.112,7.5664,8.6271a1.6807,1.6807,0,0,0,1.3115.6291,1.6067,1.6067,0,0,0,.3545-.04,1.6757,1.6757,0,0,0,1.2741-1.2235c.0773-.3012,1.8286-7.3916-2.1591-13.725a16.0133,16.0133,0,0,0-1.2137-1.6643,62.6843,62.6843,0,0,1,14.5015,7.238,1.6817,1.6817,0,0,0,2.5483-1.9539c-.2154-.5853-5.3993-14.3409-16.1831-19.177,3.7175.41,8.7567,1.2348,15.8926,2.6186a1.68,1.68,0,0,0,1.3674-2.9641C88.9617,41.3208,66.2623,23.499,52.28,35.17A9.7055,9.7055,0,0,0,47.74,28.3009c-9.6973-5.7763-30.6406,5.2272-31.5283,5.6963a1.6812,1.6812,0,0,0-.8263,1.9485,1.6585,1.6585,0,0,0,1.7326,1.2128,45.26,45.26,0,0,1,11.3515.6727,14.9861,14.9861,0,0,0-4.0825,1.713c-9.596,5.8669-10.2971,20.97-10.3211,21.61a1.6792,1.6792,0,0,0,2.7029,1.3994,92.4869,92.4869,0,0,1,11.58-7.7048c-4.2667,5.8542-6.3765,13.6832-6.9849,19.0308a1.681,1.681,0,0,0,2.8068,1.4287A97.0258,97.0258,0,0,1,39.4951,63.4143C35.3831,70.9972,26.807,89.377,26.807,110.8506a.8114.8114,0,0,0,.6915.7783H21.7051A14.3235,14.3235,0,0,1,7.399,97.3229ZM43.1467,50.3107c.1821.0288.3049.0568.328.0636a1.7626,1.7626,0,1,0,.8476-3.3986c-.2584-.0233-.4928.0023-.746-.01-2.7349-.4348-10.6233-.25-25.699,10.5766.7757-4.4915,2.8495-11.8271,8.2712-15.1351,4.0533-2.4755,9.45-2.2822,16.0225.4933a5.8531,5.8531,0,0,1,.9171.7329,1.6684,1.6684,0,0,0,2.742-1.8306A1.6589,1.6589,0,0,0,44.8848,40.4c-.407-.1888-.7953-.3292-1.1957-.5008-3.4272-2.2544-10.4065-5.2352-19.1719-6.0165,7.09-2.8522,16.6971-5.555,21.5-2.6949,2.1324,1.2741,3.18,3.5985,3.204,7.1064a1.5942,1.5942,0,0,0,.0591.2825,1.6763,1.6763,0,0,0,2.9369,1.4581c7.6315-9.5587,20.8953-4.31,28.916.2772-16.0174-2.7135-18.3417-1.4421-22.7532.9836-.4745.2586-.9729.5331-1.5247.8157a1.6856,1.6856,0,0,0-.725,2.2657c.0077.0148.0243.02.0323.0345a1.5788,1.5788,0,0,0,.045.2427,1.6773,1.6773,0,0,0,2.1858.9329,16.0635,16.0635,0,0,1,12.8853-.072c5.667,2.511,9.6973,8.114,12.04,12.2669C72.3641,51.8,59.676,49.3561,59.06,49.2389A1.6909,1.6909,0,0,0,57.0958,50.58a1.593,1.593,0,0,0,.0037.2616l-.0008.0015a1.6859,1.6859,0,0,0,1.322,1.9787c5.587,1.1089,9.5507,3.4572,11.7818,6.9784a14.3154,14.3154,0,0,1,2.0951,7.325C61.2994,54.1675,55.0033,51.67,54.7208,51.5606a1.6814,1.6814,0,0,0-2.1564.9649,2.32,2.32,0,0,0,.81,2.3137c4.846,3.02,7.6635,6.72,8.3779,11.0008.797,4.79-1.1782,9.4094-2.78,12.2083C53.6092,62.1428,52.3831,58.1445,52.37,58.1045a3.7377,3.7377,0,0,0-1.1222-1.2875c-1.1968-.6077-7.7674-2.6549-25.6267,12.7041C27.3576,62.4494,32.019,50.02,43.1467,50.3107Zm62.2553,91.256a9.4069,9.4069,0,0,1-6.8147-2.0746,8.9747,8.9747,0,0,1-3.3033-6.3149l-1.5257-15.8279h6.54a15.386,15.386,0,0,0,12.5358,12.382l42.1107,7.0526Zm128.1209-7.195a9.2407,9.2407,0,0,1-10.61,7.566L113.85,123.6718a9.168,9.168,0,0,1-7.2062-6.3225h24.7123A20.048,20.048,0,0,0,151.382,97.3229V91.9741l8.5018-6.0625,14.6289,20.5127.1249.1764L160.314,116.8167a2.9705,2.9705,0,0,0-.7105,4.2416,2.9722,2.9722,0,0,0,4.2419.7105l33.28-23.6577,5.7763,9.0424a1.3629,1.3629,0,0,0,1.8472.4372l9.2255-5.507,7.8741,10.2971a1.3683,1.3683,0,0,0,.9143.5251,1.2761,1.2761,0,0,0,1.0156-.2825l9.708-7.6688,4.1838,4.6536Zm4.724-28.2065-3.5848-3.9883a1.3612,1.3612,0,0,0-1.8606-.16l-9.6253,7.6048-7.77-10.1611a1.3645,1.3645,0,0,0-1.7833-.3439l-9.1349,5.4511-5.1357-8.04,24.2411-17.232L238.5992,100.34c.1261.1769.4042.3792.53.5561ZM247.73,49.5461l-7.2047,43.0185-11.9812-16.8a5.9366,5.9366,0,0,0-8.4816-1.4206l-40.4727,28.7273-.1264-.1769-8.0365-11.2713,5.16-26.9562a14.54,14.54,0,0,0,8.538,1.588c4.9753-.7982,11.4771,2.2539,11.4771,2.2539l3.0211-15.3843c-2.9828-1.6-8.8338-1.7743-13.0862-1.8089a40.229,40.229,0,0,1-7.0173-.5443,1.7476,1.7476,0,0,0,.4525-.838,1.7981,1.7981,0,1,0-3.5287-.693,1.7193,1.7193,0,0,0,.002.37.9186.9186,0,0,1-.0785-.102l-2.4576,12.515a1.5346,1.5346,0,0,0,.1491.3888c-1.309,6.7149-3.8089,19.5406-5.0364,25.8373l-4.1851-5.87a6.2155,6.2155,0,0,0-8.4836-1.4207l-4.97,3.5444V24.0666l88.7815,14.8692A9.2421,9.2421,0,0,1,247.73,49.5461Z" style="fill:#fff"/><path d="M117.7,43.4546a13.8089,13.8089,0,1,0-13.8076-13.81A13.8253,13.8253,0,0,0,117.7,43.4546Zm0-22.1588a8.35,8.35,0,1,1-8.3485,8.3485A8.3585,8.3585,0,0,1,117.7,21.2958Z" style="fill:#fff"/></svg>