<svg id="Layer_1" data-name="Layer 1" xmlns="http://www.w3.org/2000/svg" viewBox="0 0 159 149"><title>Touchscreen SPA Symbols</title><path d="M69.3438,64.0317l85.3264-3.208s5.8205-1.8433-2.8052-6.2981c0,0-27.4779-6.9329-73.7445-4.103a5.6461,5.6461,0,0,0-4.8532,3.53l-4.114.229s-.0417,1.7893-5.4171,1.74L10.6668,53.9575s-5.55-.3467-5.5549,7.1327c0,0-.4754,5.528,8.774,5.3457l50.1319-3.7915S68.043,62.7116,69.3438,64.0317Z" style="fill:#fff"/><path d="M115.2534,14.59l36.8491-.6525s3.5858-.4718-.0214-1.3613L109.3866,11.81s-8.0751.323-10.5952,3.0662c0,0-3.8139,4.9266-12.5853,4.9363l-29.2693-.55S41.41,18.4174,35.1755,16.932c0,0-28.24-5.8228-28.0215,5.9023,0,0-2.944,11.7883,28.2118,5.3106,0,0,16.9234-2.4534,21.676-2.6836,0,0,28.0125-1.989,29.6415-1.7483,1.5192.2391,3.0619.068,4.6274.4181,3.8039.8622,5.9061,3.6422,9.2306,5.19a21.6886,21.6886,0,0,0,10.402,1.5293l41.3686-2.22s3.6378-.7456.2289-1.8829l-37.2034.9272s-3.1208-1.1583-.0473-2.6995L152.2193,23.91s4.1734-.8748-.0231-1.8957l-36.8223.26s-4.1947-1.2649-.0513-2.5768l36.6809-.9147s4.161-.7506.0918-1.755l-36.6686.2482S110.8373,16.1527,115.2534,14.59Z" style="fill:#fff"/><path d="M126.7813,80.3568c-11.6737-.01-17.1389,4.3888-22.2032,9.6931-3.4474,3.6107-12.5323,3.92-21.4437,3.9234l-29.7367-.61s-15.7749-.9127-22.11-2.4986c0,0-28.6953-6.22-28.4635,6.2564,0,0-2.9809,12.5408,28.6664,5.6748,0,0,17.1913-2.5961,22.02-2.837,0,0,28.4577-2.0925,30.1129-1.835,1.5436.2557,14.4257-.5354,21.6345,7.0142,1.7818,1.8661,5.6092,8.8612,22.2123,8.8751,13.8084.0116,29.14-9.1115,29.135-15.6216C156.5954,87.16,135.4553,80.3641,126.7813,80.3568Z" style="fill:#fff"/><polygon points="152.74 132.839 152.767 131.601 22.985 127.313 22.904 130.973 152.74 132.839" style="fill:#fff"/><polygon points="7.678 130.62 20.413 130.803 20.495 127.103 7.766 126.683 7.678 130.62" style="fill:#fff"/><polygon points="152.562 137.407 152.567 136.169 22.728 134.277 22.714 137.939 152.562 137.407" style="fill:#fff"/><polygon points="7.878 138 20.614 137.948 20.627 134.247 7.893 134.061 7.878 138" style="fill:#fff"/></svg>