<svg id="Layer_1" data-name="Layer 1" xmlns="http://www.w3.org/2000/svg" viewBox="0 0 159 149"><title>Touchscreen SPA Symbols</title><path d="M87.8953,79.7c1.3649-.1826,24.35,3.0427,24.6226,2.6168s-8.115,1.2544-8.0058,1.1327S121.4169,87.2456,121.69,86.88s-12.7754.4868-12.7208.1217,12.557,6.8157,12.557,6.0855-12.3386,0-12.284-.73,12.284,8.398,12.284,7.85-8.5169-2.1908-8.8445-3.4687,10.7007,10.1019,10.81,9.6759-5.35-3.59-5.5687-3.4687,8.4077,10.041,8.7353,9.25-8.8991-3.0427-8.8991-3.0427,6.2239,6.39,5.5687,5.8421-4.75-.9128-6.7153-2.3733,3.7671,10.4062,2.9482,9.8585-5.0774-2.5559-5.0774-4.7467,1.3649,10.4062,1.8017,10.041-8.7353-6.9375-8.3531-7.3026-1.2557,12.6578-.6551,12.597-2.8936-6.1463-2.4568-6.5723-4.6952,9.6759-4.0947,9.3108-1.31-6.9375-1.1465-7.4851-2.4568,12.7187-2.0746,12.597-2.293-9.98-2.02-10.041-2.566,11.38-2.4568,11.5016-2.5114-10.71-2.293-10.5887-4.75,12.597-5.405,9.3108a42.86,42.86,0,0,1-.4914-6.5723c-.1638-.9128-5.0774,4.6858-5.8963,8.3371-.7825,3.4887-.4368.1217-1.4195-3.53s-3.33,1.0345-3.33,1.0345-1.4741-7.4851-1.1465-7.12-3.7671,7.12-3.7671,7.12-3.2757-1.8256-2.7844-4.9292-2.7844,3.6513-3.44,4.3815-1.1465-7.1809-.9281-7.1809-3.2413,5.4941-3.4941,5.9638c-3.9309,7.3026-5.46,5.4769-.6551-3.1645,3.3972-6.11-6.7321,2.1087-10.1548,5.4769-.4427.4356.273-4.0773,3.7125-6.5723,6.0542-4.3917-.4368-4.3207-6.6607-.852s-6.3877,2.0691-1.2011-.73c10.3757-5.6,4.1493-7.7894,3.9855-7.7286s-9.1175,3.4687-9.0083,3.8339,9.2-8.7017,9.2-7.7889-13.0222,2.0685-13.1314,2.86,11.8216-9.2073,11.6578-8.66-14.2784,5.0692-14.4422,3.73,12.203-8.6277,12.0938-7.8366-15.97,2.1162-15.8609,3.455,14.6347-8.6735,14.5255-8.1258-15.3425,1.6446-15.2879.9752,19.2993-7.416,18.9718-6.9292-10.3475,2.1522-10.3475,1.3,8.5313-6.3229,8.3675-5.7144S34.064,95.5219,33.9,94.9133s14.9634-5.6892,14.9634-5.1415-16.765.6383-16.6558.8817,28.9357-8.5805,31.2287-8.0328" style="fill:none;stroke:#fff;stroke-miterlimit:10;stroke-width:1.9483041719161103px"/><path d="M75.775,91.7441c10.6148,0,21.6036,18.4571,21.7128,22.0121.0893,2.9084-4.2163,12.2721-22.8047,12.2721s-22.3837-10.3028-22.1-12.2721C54.1725,102.7352,67.09,91.7441,75.775,91.7441Z" style="fill:#fff;stroke:#fff;stroke-miterlimit:10;stroke-width:1.845388956676663px"/><path d="M66.13,80.473c.515,1.03,1.1779,1.2556,4.4824,1.361A61.5609,61.5609,0,0,0,82.86,81.017c.72-.1778.812-.1284,1.0371-.7223A40.4,40.4,0,0,0,66.13,80.473Z" style="fill:#fff"/><path d="M79.5033,75.0063a16.8315,16.8315,0,0,0-4.0344-.3772,37.7838,37.7838,0,0,0-7.9582.7521,2.3831,2.3831,0,0,0-1.8726,2.185,48.93,48.93,0,0,1,18.7543.2131c.1039.0069.0736-.1937.0732-.1993-.0288-1.372-1.2474-1.6581-3.59-2.2276C80.4356,75.2454,79.9743,75.1337,79.5033,75.0063Z" style="fill:#fff"/><path d="M49.9175,31.07a17.1195,17.1195,0,1,0,17.12,17.12A17.1388,17.1388,0,0,0,49.9175,31.07Zm0,29.399A12.2795,12.2795,0,1,1,62.1969,48.19,12.2795,12.2795,0,0,1,49.9175,60.4692Z" style="fill:#fff"/><path d="M49.9175,38.3708A9.8189,9.8189,0,1,0,59.7364,48.19,9.83,9.83,0,0,0,49.9175,38.3708Zm0,13.5a3.6809,3.6809,0,1,1,3.681-3.6809A3.681,3.681,0,0,1,49.9175,51.8706Z" style="fill:#fff"/><path d="M72.23,83.0883c-.6055,0-1.1654-.0084-1.6556-.024a7.8371,7.8371,0,0,1-4.7471-1.37c.3362,2.3165,2.14,3.8063,4.7976,3.9216a85.87,85.87,0,0,0,9.9814-.6464c.7761-.0793,1.4753-.15,2.0544-.203.7293-.0677,1.2224-1.3636,1.5123-3.0265a2.9918,2.9918,0,0,1-1.02.4711A58.0373,58.0373,0,0,1,72.23,83.0883Z" style="fill:#fff"/><path d="M80.0079,71.2014a14.648,14.648,0,0,0-4.5846-.5875A20.832,20.832,0,0,0,67.52,71.99a3.8157,3.8157,0,0,0-1.7637,2.8968,3.4907,3.4907,0,0,1,1.4946-.7066c2.6912-.5851,9.3831-1.2218,12.5741-.36.4613.1249.9107.2331,1.3408.3376a12.9559,12.9559,0,0,1,2.9324.9577A6.7356,6.7356,0,0,0,80.0079,71.2014Z" style="fill:#fff"/><path d="M102.7252,29.5129a17.1195,17.1195,0,1,0,17.1194,17.12A17.139,17.139,0,0,0,102.7252,29.5129Zm0,29.399a12.2795,12.2795,0,1,1,12.2795-12.2795A12.2795,12.2795,0,0,1,102.7252,58.9119Z" style="fill:#fff"/><path d="M102.7252,36.8135a9.8189,9.8189,0,1,0,9.8189,9.8189A9.83,9.83,0,0,0,102.7252,36.8135Zm0,13.5a3.6809,3.6809,0,1,1,3.681-3.6809A3.681,3.681,0,0,1,102.7252,50.3133Z" style="fill:#fff"/><path d="M128.4316,8.6622c-2.7585-3.066-7.8958-4.8417-10.3659-5.696l-.63-.2187c-2.3836-.853-7.0956-1.4982-13.1628-.7545C88.7966,3.8913,84.7655,21.1188,84.5589,22.0487l-3.376,12.9574-2.833,8.22a10.8019,10.8019,0,0,1-1.8166,3.6163c-.5791,0-.9587-.3412-1.6772-2.362-.4878-1.3588-1.4177-7.581-1.867-10.57-.1922-1.2927-.334-2.2082-.3724-2.3668-.1009-.4109-1.3432-6.9863-2.0833-10.9149-.3917-2.0749-.6944-3.6764-.74-3.9046-.0408-.197-4.8833-13.83-18.6684-12.29-2.0184.2271-12.37,1.6472-17.8364,7.3575l-.543.5551C29.0043,16.1227,20.5,25.242,25.67,49.5986c1.2426,5.8544,3.7749,16.4307,9.979,20.8615,6.8289,4.8778,12.4275,4.4717,14.8088,4.3011l.3676-.0264c3.6571-.2319,9.3567-3.7893,11.01-5.1661.61-.5082,1.3072-1.15,2.0592-1.8418a46.006,46.006,0,0,1,4.2891-3.6355,1.7748,1.7748,0,0,1,.5671-.2763c-.0024,2.8414-.507,3.5875-1.1918,4.5991a7.8088,7.8088,0,0,1-1.5931,1.1834,11.4487,11.4487,0,0,0-3.7436,3.2787c-1.4321,2.3668-1.4729,8.9951.4469,12.79,1.1558,2.2839,2.6744,2.88,3.746,2.9771.0841.0072,5.02.3676,9.8493.3676,3.6571,0,7.2518-.2066,8.6286-.93,3.1453-1.6556,4.6928-11.0135,3.376-13.81a27.2608,27.2608,0,0,0-2.6624-4.223,13.0913,13.0913,0,0,1-.853-1.2471,27.1585,27.1585,0,0,1-.4734-4.2374l-.0312-.4421c-.0024-.0457-.0048-.0841-.0072-.1141a2.5323,2.5323,0,0,1,.6368.2151c.6344.6968,3.6331,3.9046,6.2594,5.1829,4.7264,2.3031,12.2858,4.1029,21.4815-.4253,9.45-4.6531,11.7091-11.7259,11.7812-11.9674.3748-.9888,8.7081-24.3923,10.2361-29.7473C136.6673,20.1488,133.6746,14.4879,128.4316,8.6622ZM49.9175,67.77a19.58,19.58,0,1,1,19.58-19.58A19.58,19.58,0,0,1,49.9175,67.77Zm35.98,9.237c.0577,1.4681.1778,8.8773-3.1069,9.18-.5743.0529-1.2687.1237-2.04.2018-2.833.2883-6.5958.6716-9.2534.6716-.3292,0-.6416-.006-.9347-.0192-3.6619-.1586-6.1657-2.5218-6.2258-5.8822-.1394-.7905-1.3312-8.6839,2.5927-10.4692,3.4913-1.5847,10.3347-2.004,13.5665-.829A7.8731,7.8731,0,0,1,85.8973,77.0067Zm16.8279-10.7944a19.58,19.58,0,1,1,19.58-19.58A19.58,19.58,0,0,1,102.7252,66.2123Z" style="fill:#fff"/></svg>