<svg id="Layer_1" data-name="Layer 1" xmlns="http://www.w3.org/2000/svg" viewBox="0 0 159 149"><title>Touchscreen SPA Symbols</title><path d="M35.1833,81.2442a7.35,7.35,0,0,0-6.1024,2.6774q-2.1348,2.6779-2.1338,7.842V102.718q0,5.2189,2.1474,7.91a7.37,7.37,0,0,0,6.116,2.691,7.699,7.699,0,0,0,6.3062-2.6774q2.2017-2.6765,2.2017-7.9236V91.7636q0-5.1636-2.2153-7.842A7.7426,7.7426,0,0,0,35.1833,81.2442Z" style="fill:#fff"/><path d="M68.5357,81.7063H61.1965V97.2h7.3391a5.7256,5.7256,0,0,0,4.8656-2.1882,8.8557,8.8557,0,0,0,1.6581-5.5044,9.1274,9.1274,0,0,0-1.6445-5.5723A5.6787,5.6787,0,0,0,68.5357,81.7063Z" style="fill:#fff"/><path d="M10.7842,66.3383v62.6274H149.2934V66.3383Zm38.4251,36.38q0,7.0406-3.8055,10.9679T35.21,117.6137q-6.3053,0-10.03-3.9278T21.4564,102.718V91.8452q0-7.013,3.7239-10.9815a13.0639,13.0639,0,0,1,10.003-3.9686A13.5331,13.5331,0,0,1,45.39,80.85q3.8181,3.955,3.8191,10.9951Zm28.147-4.5666q-3.1949,3.29-8.8206,3.289H61.1965v15.6025h-5.518V77.4659H68.5357q5.6267,0,8.8206,3.3026A11.9624,11.9624,0,0,1,80.55,89.4532,11.95,11.95,0,0,1,77.3562,98.1514Zm30.3759,18.8915H86.3942V77.4659h21.202v4.24H91.9122V94.4547H105.34v4.2132H91.9122v14.189h15.82Zm32.102,0H134.289L118.9583,87.8494l-.1631.0544v29.1391h-5.518V77.4659h5.518l15.3307,29.1119.1631-.0272V77.4659h5.5451Z" style="fill:#fff"/><circle cx="80.0388" cy="23.8411" r="9.9409" style="fill:#fff"/><polygon points="80.039 72.551 28.086 72.551 54.062 45.587 80.039 18.622 106.015 45.587 131.992 72.551 80.039 72.551" style="fill:none;stroke:#fff;stroke-linejoin:round;stroke-width:5.676401484013474px"/><rect x="10.1218" y="65.5792" width="139.5449" height="63.8595" style="fill:none;stroke:#fff;stroke-linejoin:round;stroke-width:14.191003710033685px"/></svg>