<svg id="Layer_1" data-name="Layer 1" xmlns="http://www.w3.org/2000/svg" viewBox="0 0 159 149"><title>Touchscreen SPA Symbols</title><path d="M119.5211,19.4126v89.4442h13.3777V8.71H69.5581v8.4089h47.67A2.2928,2.2928,0,0,1,119.5211,19.4126Z" style="fill:none"/><path d="M67.2647,113.4437a2.2928,2.2928,0,0,1-2.2934-2.2934V38.1432h-13.38v83.7106h47.67v-8.41Z" style="fill:none"/><path d="M69.5581,21.7061v11.85h31.9962a2.2928,2.2928,0,0,1,2.2934,2.2934v73.0071h11.0865V21.7061Z" style="fill:none"/><path d="M47.0044,124.1472V38.1432H35.92V138.29H99.2609v-11.848H49.2979A2.2938,2.2938,0,0,1,47.0044,124.1472Z" style="fill:none"/><rect x="51.5913" y="21.7061" width="13.3799" height="11.8502" style="fill:none"/><rect x="69.5581" y="38.1432" width="29.7028" height="70.7137" style="fill:none"/><rect x="103.8477" y="113.4437" width="11.0865" height="8.41" style="fill:none"/><path d="M135.1922,4.1234H67.2647a2.2928,2.2928,0,0,0-2.2934,2.2934V17.1192h4.5869V8.71h63.3406V108.8568H119.5211v4.5869h15.6711a2.2928,2.2928,0,0,0,2.2934-2.2934V6.4168A2.2928,2.2928,0,0,0,135.1922,4.1234Z" style="fill:#fff"/><path d="M99.2609,138.29H35.92V38.1432H47.0044V33.5563H33.6268A2.2928,2.2928,0,0,0,31.3333,35.85V140.5832a2.2921,2.2921,0,0,0,2.2934,2.2934h67.9275a2.2921,2.2921,0,0,0,2.2934-2.2934V126.4418H99.2609Z" style="fill:#fff"/><path d="M114.9342,121.8538H103.8477v4.588h13.38a2.2938,2.2938,0,0,0,2.2934-2.2946V113.4437h-4.5869Z" style="fill:#fff"/><path d="M114.9342,21.7061v87.1508h4.5869V19.4126a2.2928,2.2928,0,0,0-2.2934-2.2934h-47.67v4.5869Z" style="fill:#fff"/><path d="M51.5913,21.7061h13.38V17.1192H49.2979a2.2928,2.2928,0,0,0-2.2934,2.2934V33.5563h4.5869Z" style="fill:#fff"/><path d="M51.5913,38.1432H47.0044v86.004a2.2938,2.2938,0,0,0,2.2934,2.2946h49.963v-4.588h-47.67Z" style="fill:#fff"/><rect x="64.9712" y="17.1192" width="4.5869" height="4.5869" style="fill:#fff"/><rect x="114.9342" y="108.8568" width="4.5869" height="4.5869" style="fill:#fff"/><rect x="99.2609" y="121.8538" width="4.5869" height="4.588" style="fill:#fff"/><rect x="47.0044" y="33.5563" width="4.5869" height="4.5869" style="fill:#fff"/><path d="M67.48,59.4563a9.5639,9.5639,0,0,1,.9227-4.6838,16.8611,16.8611,0,0,1,3.469-3.7027,11.2858,11.2858,0,0,0,2.1258-2.9084,7.9154,7.9154,0,0,0,.7943-3.6092,5.9159,5.9159,0,0,0-.8994-3.469,2.9456,2.9456,0,0,0-2.558-1.2732,2.8849,2.8849,0,0,0-2.2543,1.0979,4.8722,4.8722,0,0,0-.9928,3.1537H61.6869l-.0467-.14q-.07-4.5553,2.64-6.9381a10.2918,10.2918,0,0,1,7.0549-2.3828,10.0257,10.0257,0,0,1,7.3819,2.6631,9.7373,9.7373,0,0,1,2.6865,7.2418,10.3508,10.3508,0,0,1-1.5068,5.443A14.8492,14.8492,0,0,1,76.1,54.1768a5.3649,5.3649,0,0,0-1.6352,2.2076,9.5719,9.5719,0,0,0-.3971,3.0719Zm6.541,9.6479H67.48V63.4276h6.541Z" style="fill:#fff"/><line x1="60.8618" y1="82.8649" x2="105.6645" y2="82.8649" style="fill:none;stroke:#fff;stroke-miterlimit:10;stroke-width:2.5081798851220074px"/><line x1="60.8618" y1="95.4788" x2="105.6645" y2="95.4788" style="fill:none;stroke:#fff;stroke-miterlimit:10;stroke-width:2.5081798851220074px"/><line x1="60.8618" y1="108.475" x2="105.6645" y2="108.475" style="fill:none;stroke:#fff;stroke-miterlimit:10;stroke-width:2.5081798851220074px"/></svg>